<?xml version="1.0" encoding="utf-8"?>
<!-- Generator: Adobe Illustrator 23.0.3, SVG Export Plug-In . SVG Version: 6.00 Build 0)  -->
<svg version="1.1" id="Layer_1" xmlns="http://www.w3.org/2000/svg" xmlns:xlink="http://www.w3.org/1999/xlink" x="0px" y="0px"
	 viewBox="0 0 750 742" style="enable-background:new 0 0 750 742;" xml:space="preserve">
<style type="text/css">
	.st0{fill:#FCE9EE;}
	.st1{fill:#EBE98B;}
	.st2{fill:#B7DFE5;}
	.st3{fill:#E8D0E6;}
	.st4{fill:none;}
	.st5{fill:none;stroke:#000000;stroke-width:4;stroke-miterlimit:10;}
	.st6{fill:none;stroke:#000000;stroke-width:2;stroke-miterlimit:10;}
	.st7{fill:none;stroke:#000000;stroke-width:3;stroke-miterlimit:10;}
	.st8{fill:none;stroke:#000000;stroke-width:5;stroke-miterlimit:10;}
	.st9{fill:none;stroke:#000000;stroke-width:8;stroke-miterlimit:10;}
</style>
<g>
	<g>
		<path class="st0" d="M276.68,693.52l-14.96-45.71c0,0-10.27-18.79-34.22-18.91c-23.95-0.12-44.67-1.46-44.67-1.46l-41.26-8.9
			c0,0-0.33-16.61,19.74-20.92c36.31-7.8,117.49-17.37,163.9-48.58c11.11-7.47,22.03-20.59,43.88-46.84
			c26.6-31.96,42.58-51.16,53.05-81.15c5.49-15.73,4.74-20.89,15.08-53.08c5.68-17.66,11.01-31.98,14.72-41.56
			c57.8-0.04,115.6-0.09,173.4-0.13c-16.79,49.56-33.59,99.12-50.38,148.68c-2.33,18.58-3.52,47.86,5.95,81.57
			c5.52,19.64,13.21,35.61,20.22,47.64c16.24,22.94,32.47,45.89,48.71,68.83l21.78,20.52H276.68z"/>
		<g>
			<path class="st0" d="M490.74,43.11c2.73-1.53,6.92-3.55,12.3-4.83c5.69-1.35,14.68-2.34,37.9,5.31
				c15.88,5.24,30.61,10.21,47.42,22.4c10.88,7.89,17.94,15.37,19.7,17.26c26.61,28.66,33.12,64.45,38.13,94.06
				c3.33,19.67,3.93,34.79,4.07,40.67c0.38,16.64,0.75,43.7-10.35,75.15c-6.04,17.11-9.06,25.67-16.29,31.29
				c-12.15,9.44-21.41,1.64-74.56,1.7c-8.16,0.01-16.85,0.19-40.58,0.24c-20.23,0.04-17.53-0.09-21.14,0.02
				c-21.01,0.59-34.69,2.73-35.38,0.03c-0.11-0.42,0.05-1.18,1.76-2.5c7.08-45.53,8.35-82.55,8.05-108.44c0,0,5.53-29.48-5.34-79.57
				c-2.46-11.34-2.25-23.16-4.81-34.48c-1.1-4.88-1.45-11.72-0.2-19.77c0.94-6.02,1.4-9.04,3.31-11.47
				c4.13-5.26,8.79-2.88,17.19-8.69c1.49-1.03,4.41-3.92,10.24-9.7C485.8,48.17,488.76,45.15,490.74,43.11z"/>
		</g>
	</g>
	<path class="st1" d="M141.57,618.54c0.91-4.31,2.96-10.76,8.24-15.87c8.44-8.17,19.15-7.67,38.42-10.17
		c8.96-1.16,21.36-3.19,36.2-7.01c17.92-3.43,32.63-7.57,43.4-10.99c18.58-5.91,33.66-10.71,50.86-21.34
		c14.33-8.86,23.34-17.57,32.09-26.04c8.23-7.97,21.33-25.83,47.29-61.15c2.68-3.64,7.18-9.81,12.12-18.6
		c5.59-9.94,8.95-18.29,10.94-23.52c8.54-22.43,11.12-39.51,16.08-55.87c3.72-12.26,9.83-30.1,19.79-51.28
		c-0.37-29.04,1.04-44.48,2.5-53.29c0.38-2.29,1.24-7.05,1.68-13.74c0.6-9.33-0.21-13.5-0.11-22.41c0.11-9.33,1.12-15.46,1.58-19.45
		c2.36-20.64-2.17-54.32-10.9-111.8c0,0-1.32-10.1,0.06-18.57c0.81-5.01,1.55-5.28,1.16-6.38c0,0-3.36-9.52-114.61,12.48
		c0,0-47.79,19.32-79.32,89.48l14.24,47.79c0,0,26.44,134.23,13.22,167.78c-3.83,9.73-9.25,18.08-9.25,18.08
		c-4.47,7.35-8.53,12.49-12.23,17.12c-3.63,4.55-10.46,13.13-17.28,19.45c-3.52,3.27-13.65,12.09-38.34,20.91
		c-17.78,6.35-32.92,9.07-54.08,11.88c-19.22,2.55-44.74,5.37-75.25,7.12c0,0-18.3,16.27,7.12,34.57c0,0,18.3,16.27,2.03,27.46
		c0,0-22.37,39.66-1.02,65.08c0,0,16.27,16.73,40.67,12.94C133.12,621.65,137.34,620.1,141.57,618.54z"/>
	<path class="st2" d="M80.58,485.14c0,0,167.79,2.74,195.09-79.67c4.24-5.68,9.86-14.7,13.3-26.87c5.46-19.3,2.39-35.72,0.35-43.6
		c-2.15-27.09-5.7-56.5-11.26-87.8c-4.37-24.6-9.5-47.63-15.01-68.98c-1.18-1.02-2.62-1.97-3.63-1.52c-1.2,0.53-1.25,2.79-1.28,3.34
		c-0.4,7.54-13.79,23.85-18.28,41.79c-2.28,9.13,0.18,8.91-1.24,22.86c-1.69,16.65-6.51,29.79-10.37,38.37
		c-2.03,9.45-7.96,29.84-25.74,41.92c-10.77,7.32-23.57,10.02-34,12.22c-9.47,2-17.52,2.67-23.12,2.91
		c-8.76,1.79-19.08,4.64-30.23,9.27c-16.76,6.97-29.7,15.61-38.93,22.9c-6.86,6.61-13.73,13.22-20.59,19.83
		c-1.08,0.17-8.61,1.49-10.68,6.86c-2.01,5.22,2.42,10.94,4.58,13.73c8.53,11.03,18.55,8.76,22.8,18.05
		c1.58,3.46,1.42,6.63,1.09,12.97c-0.55,10.57-4.59,21.1-4.59,21.1l1.61,12.52L80.58,485.14z"/>
	<path class="st3" d="M44.96,398.98c6.57-4.67,13.14-9.33,19.7-14l29.74-23.64c3.85-2.73,8.28-5.54,13.31-8.21
		c9.04-4.8,17.54-7.84,24.69-9.81c3.46-1.07,8.74-2.47,15.37-3.33c3.88-0.5,5.73-0.49,9.65-0.91c4.14-0.45,10.08-1.33,17.3-3.24
		c3.99-0.78,8.55-1.96,13.48-3.79c3.49-1.29,6.62-2.71,9.38-4.12c3.01-1.6,6.78-3.98,10.64-7.47c3.54-3.19,6.14-6.4,7.99-9.04
		c3.38-5.99,6.76-11.98,10.14-17.98c0,0,16.02-38.9,12.2-68.64l21.35-48.81l22.12-40.42c9.41-11.13,18.81-22.26,28.22-33.39
		c10.17-6.92,20.34-13.84,30.5-20.76c15.85-1.98,28.76-3.91,37.84-5.35c11.18-1.77,17.78-2.99,28.71-4.36
		c11.48-1.44,20.95-2.19,27.32-2.61c6.12,0.64,12.24,1.28,18.36,1.91c5.08-2.54,10.17-5.08,15.25-7.63
		c5.26-4.39,10.51-8.79,15.77-13.18c3.98-4.69,8.02-10.72,6.09-14.78c-2.87-6.05-17.24-4.08-34.07-3.56
		c-23.76,0.74-20.03-2.42-54.91-3.56c-20.74-0.68-53.25-0.58-96.09,4.07c-9.66,1.53-19.32,3.05-28.98,4.58
		c-5.71,0.75-13.88,2.2-23.34,5.25c-11.61,3.74-19.71,8.14-31.06,14.58c-12.21,6.92-26.8,15.41-43.22,25.42
		c-7.8,6.65-16.36,14.88-24.91,24.91c-6.17,7.24-11.38,14.28-15.76,20.85c-2.91,7.11-5.8,14.4-8.64,21.86
		c-3.62,9.5-7.01,18.83-10.17,27.96c-5.9,15.65-13.19,32.49-22.24,50.06c-4.88,9.48-9.88,18.38-14.87,26.71
		c-0.63,2.46-1.45,7.04-0.28,12.56c0.89,4.2,2.58,7.35,3.84,9.3c1.66,2.21,5.49,7.93,6.1,16.27c0.64,8.8-2.69,15.3-4.06,17.67
		c-2.53,4.01-5.16,8.07-7.88,12.17c-5,7.51-10.01,14.68-15,21.52c-9.15,14.41-18.3,28.81-27.46,43.22c-1.52,2.52-1.53,5.67,0,8.13
		C38.72,398.07,41.83,399.48,44.96,398.98z"/>
	<path class="st4" d="M322.89,552.48c7.22-0.46,26.5-2.63,45-17c17.6-13.67,24.59-30.67,27-37.57"/>
	<path class="st5" d="M462.37,302.51c28.07-7.78,40.07-2.37,44.2,0.06c24.06,14.17,11.67,63.42-17.45,93.93
		c-6.67,6.99-13.37,12.1-18.29,15.49c-3.41,1.58-30.19,13.83-37,7.89c-2.87-2.5-1.66-8.41,2.22-20.01
		c10.95-32.71,1.35-10.91,16.32-62.46c0.2-0.7,0.41-1.4,0.61-2.1C457.02,321.41,460.16,310.33,462.37,302.51z"/>
	<path class="st5" d="M477.4,345.78"/>
	<path class="st6" d="M482.59,333.01c1.33-0.65,4.03-1.77,7.53-1.86c1.67-0.04,4.76-0.12,6.56,1.35c2.35,1.9,1.35,5.42,0.64,7.8
		c-1.82,6.07-5.89,9.94-13.97,17.44c-4.89,4.53-8.65,7.35-12.11,6.83c-0.44-0.07-0.79-0.18-1.03-0.26c-0.14-0.1-0.35-0.26-0.55-0.49
		c-1.96-2.26,1.13-5.96,3.69-10.52c4.4-7.85,1.43-10.89,7.16-17.95C481.34,334.29,482.1,333.49,482.59,333.01z"/>
	<path class="st7" d="M477.32,316.53c0.53-0.25,1.2-0.51,2-0.7c9.45-2.23,24.42,8.64,25.41,20.06c0.11,1.32,0.22,2.77-0.09,4.49
		c-0.94,5.22-4.42,8.86-5.97,10.51c-15.04,15.95-18.11,25.93-37.03,37.13c-1.61,0.95-2.94,1.68-3.67,2.08
		c-1.22,0.4-1.98,0.31-2.45,0.14c-5.52-1.97,9.72-20.84,10.67-46.92c0,0,0.34-19.49,8.57-25.25
		C475.76,317.35,476.69,316.85,477.32,316.53z"/>
	<path class="st8" d="M138.73,273.88c3.74-2.92,22.82-17.15,47.63-12.32c13.69,2.67,23.15,9.97,27.81,14.18"/>
	<path class="st5" d="M153.01,297.7c4.44,7.89,12.68,12.18,20.68,10.83c9.53-1.61,14.06-10.42,14.56-11.45
		c-0.44-1.1-4.74-11.4-14.86-13.61c-6.67-1.46-15.96,0.57-19.23,7.42C152.99,293.37,152.88,295.89,153.01,297.7z"/>
	<path class="st9" d="M94.52,469.43c2.34,1.03,52.08,22.13,89.14-6.35c13.92-10.69,20.82-24.36,24.21-33.1"/>
</g>
</svg>
